<?xml version="1.0" encoding="UTF-8"?>
<svg width="556px" height="707px" viewBox="0 0 556 707" version="1.1" xmlns="http://www.w3.org/2000/svg" xmlns:xlink="http://www.w3.org/1999/xlink">
    <!-- Generator: Sketch 49.1 (51147) - http://www.bohemiancoding.com/sketch -->
    <title>Combined Shape</title>
    <desc>Created with Sketch.</desc>
    <defs>
        <path d="M240.54367,154.236557 L240.54367,113.622698 L315.625468,113.622698 L315.625468,154.236557 C451.199186,172.562757 555.711344,288.749678 555.711344,429.346723 C555.711344,582.675757 431.413603,706.973498 278.084569,706.973498 C124.755535,706.973498 0.457793759,582.675757 0.457793759,429.346723 C0.457793759,288.749678 104.969952,172.562757 240.54367,154.236557 Z M191.406516,1.99895322e-15 L364.762622,5.10647414e-15 C378.135403,2.64993411e-15 382.984697,1.39238417 387.873586,4.00699056 C392.762474,6.62159695 396.599303,10.4584256 399.213909,15.3473144 C401.828516,20.2362033 403.2209,25.0854969 403.2209,38.458278 L403.2209,61.6507869 C403.2209,75.023568 401.828516,79.8728615 399.213909,84.7617504 C396.599303,89.6506393 392.762474,93.4874679 387.873586,96.1020743 C382.984697,98.7166807 378.135403,100.109065 364.762622,100.109065 L191.406516,100.109065 C178.033735,100.109065 173.184441,98.7166807 168.295552,96.1020743 C163.406663,93.4874679 159.569835,89.6506393 156.955228,84.7617504 C154.340622,79.8728615 152.948238,75.023568 152.948238,61.6507869 L152.948238,38.458278 C152.948238,25.0854969 154.340622,20.2362033 156.955228,15.3473144 C159.569835,10.4584256 163.406663,6.62159695 168.295552,4.00699056 C173.184441,1.39238417 178.033735,4.45549325e-15 191.406516,1.99895322e-15 Z M27.2184457,105.495563 L27.3512459,105.395491 C43.9095685,92.9178999 67.4478273,96.2259865 79.9254184,112.784309 L132.641665,182.741131 C120.945704,188.544955 110.266276,195.087623 100.603381,202.369137 C90.9404865,209.65065 81.6496962,218.502643 72.7310106,228.925115 L19.7296293,157.936419 C7.3645854,141.374995 10.712076,117.934005 27.2184457,105.495563 Z" id="path-1"></path>
    </defs>
    <g id="Def" stroke="none" stroke-width="1" fill="none" fill-rule="evenodd">
        <g id="Desktop-HD-Copy-3" transform="translate(-764.000000, -166.000000)">
            <g id="Group-8" transform="translate(760.000000, 166.000000)">
                <g id="Bitmap" transform="translate(4.000000, 0.000000)">
                    <mask id="mask-2" fill="white">
                        <use xlink:href="#path-1"></use>
                    </mask>
                    <use id="Combined-Shape" fill="rgba(255, 73, 41, 1)" xlink:href="#path-1"></use>
                </g>
            </g>
        </g>
    </g>
</svg>